<mxfile host="app.diagrams.net" modified="2020-04-07T07:49:32.902Z" agent="5.0 (Windows NT 10.0; WOW64) AppleWebKit/537.36 (KHTML, like Gecko) Chrome/69.0.3497.100 Safari/537.36" etag="hPgDzgsoOZWjqqSFXA0H" version="12.9.9" type="github">
  <diagram id="SAHhi2RFdMHjG3uvuq60" name="第 1 页">
    <mxGraphModel dx="1422" dy="750" grid="1" gridSize="10" guides="1" tooltips="1" connect="1" arrows="1" fold="1" page="1" pageScale="1" pageWidth="827" pageHeight="1169" math="0" shadow="0">
      <root>
        <mxCell id="0" />
        <mxCell id="1" parent="0" />
        <mxCell id="oR6tJbkFe2Ptcuh7xE9g-2" value="" style="verticalLabelPosition=bottom;html=1;verticalAlign=top;align=center;strokeColor=none;fillColor=#00BEF2;shape=mxgraph.azure.user;" parent="1" vertex="1">
          <mxGeometry x="130" y="397" width="47.5" height="50" as="geometry" />
        </mxCell>
        <mxCell id="oR6tJbkFe2Ptcuh7xE9g-3" value="商户" style="text;html=1;strokeColor=none;fillColor=none;align=center;verticalAlign=middle;whiteSpace=wrap;rounded=0;" parent="1" vertex="1">
          <mxGeometry x="137.25" y="457" width="40" height="20" as="geometry" />
        </mxCell>
        <mxCell id="oR6tJbkFe2Ptcuh7xE9g-4" value="基本信息" style="ellipse;whiteSpace=wrap;html=1;fillColor=#dae8fc;strokeColor=#6c8ebf;" parent="1" vertex="1">
          <mxGeometry x="280" y="297" width="100" height="60" as="geometry" />
        </mxCell>
        <mxCell id="oR6tJbkFe2Ptcuh7xE9g-6" value="提交进件资料" style="ellipse;whiteSpace=wrap;html=1;fillColor=#e1d5e7;strokeColor=#9673a6;" parent="1" vertex="1">
          <mxGeometry x="440" y="270" width="90" height="40" as="geometry" />
        </mxCell>
        <mxCell id="oR6tJbkFe2Ptcuh7xE9g-7" value="查看修改" style="ellipse;whiteSpace=wrap;html=1;fillColor=#fff2cc;strokeColor=#d6b656;" parent="1" vertex="1">
          <mxGeometry x="440" y="330" width="90" height="40" as="geometry" />
        </mxCell>
        <mxCell id="oR6tJbkFe2Ptcuh7xE9g-8" value="" style="aspect=fixed;pointerEvents=1;shadow=0;dashed=0;html=1;strokeColor=none;labelPosition=center;verticalLabelPosition=bottom;verticalAlign=top;align=center;shape=mxgraph.mscae.enterprise.user_permissions;fillColor=#0078D7;" parent="1" vertex="1">
          <mxGeometry x="133.75" y="812" width="47" height="50" as="geometry" />
        </mxCell>
        <mxCell id="oR6tJbkFe2Ptcuh7xE9g-32" value="" style="edgeStyle=orthogonalEdgeStyle;rounded=0;orthogonalLoop=1;jettySize=auto;html=1;" parent="1" source="oR6tJbkFe2Ptcuh7xE9g-9" target="oR6tJbkFe2Ptcuh7xE9g-21" edge="1">
          <mxGeometry relative="1" as="geometry" />
        </mxCell>
        <mxCell id="oR6tJbkFe2Ptcuh7xE9g-9" value="组织机构" style="ellipse;whiteSpace=wrap;html=1;fillColor=#e1d5e7;strokeColor=#9673a6;" parent="1" vertex="1">
          <mxGeometry x="280" y="732" width="100" height="60" as="geometry" />
        </mxCell>
        <mxCell id="oR6tJbkFe2Ptcuh7xE9g-11" value="支付信息" style="ellipse;whiteSpace=wrap;html=1;fillColor=#d5e8d4;strokeColor=#82b366;" parent="1" vertex="1">
          <mxGeometry x="280" y="377" width="100" height="60" as="geometry" />
        </mxCell>
        <mxCell id="oR6tJbkFe2Ptcuh7xE9g-13" value="商户信息" style="ellipse;whiteSpace=wrap;html=1;fillColor=#ffe6cc;strokeColor=#d79b00;" parent="1" vertex="1">
          <mxGeometry x="280" y="652" width="100" height="60" as="geometry" />
        </mxCell>
        <mxCell id="oR6tJbkFe2Ptcuh7xE9g-14" value="支付码" style="ellipse;whiteSpace=wrap;html=1;fillColor=#f8cecc;strokeColor=#b85450;" parent="1" vertex="1">
          <mxGeometry x="280" y="812" width="100" height="60" as="geometry" />
        </mxCell>
        <mxCell id="oR6tJbkFe2Ptcuh7xE9g-15" value="支付码" style="ellipse;whiteSpace=wrap;html=1;fillColor=#f8cecc;strokeColor=#b85450;" parent="1" vertex="1">
          <mxGeometry x="280" y="457" width="100" height="60" as="geometry" />
        </mxCell>
        <mxCell id="oR6tJbkFe2Ptcuh7xE9g-16" value="增删改查" style="ellipse;whiteSpace=wrap;html=1;fillColor=#f8cecc;strokeColor=#b85450;" parent="1" vertex="1">
          <mxGeometry x="440" y="565" width="90" height="40" as="geometry" />
        </mxCell>
        <mxCell id="oR6tJbkFe2Ptcuh7xE9g-17" value="审核" style="ellipse;whiteSpace=wrap;html=1;fillColor=#d5e8d4;strokeColor=#82b366;" parent="1" vertex="1">
          <mxGeometry x="440" y="622" width="90" height="40" as="geometry" />
        </mxCell>
        <mxCell id="oR6tJbkFe2Ptcuh7xE9g-18" value="下载" style="ellipse;whiteSpace=wrap;html=1;fillColor=#dae8fc;strokeColor=#6c8ebf;" parent="1" vertex="1">
          <mxGeometry x="440" y="467" width="90" height="40" as="geometry" />
        </mxCell>
        <mxCell id="oR6tJbkFe2Ptcuh7xE9g-19" value="查询" style="ellipse;whiteSpace=wrap;html=1;fillColor=#e1d5e7;strokeColor=#9673a6;" parent="1" vertex="1">
          <mxGeometry x="440" y="387" width="90" height="40" as="geometry" />
        </mxCell>
        <mxCell id="oR6tJbkFe2Ptcuh7xE9g-20" value="增删改查" style="ellipse;whiteSpace=wrap;html=1;fillColor=#f8cecc;strokeColor=#b85450;" parent="1" vertex="1">
          <mxGeometry x="440" y="682" width="90" height="40" as="geometry" />
        </mxCell>
        <mxCell id="oR6tJbkFe2Ptcuh7xE9g-21" value="增删改查" style="ellipse;whiteSpace=wrap;html=1;fillColor=#ffe6cc;strokeColor=#d79b00;" parent="1" vertex="1">
          <mxGeometry x="440" y="742" width="90" height="40" as="geometry" />
        </mxCell>
        <mxCell id="oR6tJbkFe2Ptcuh7xE9g-22" value="增删改查" style="ellipse;whiteSpace=wrap;html=1;fillColor=#e1d5e7;strokeColor=#9673a6;" parent="1" vertex="1">
          <mxGeometry x="440" y="822" width="90" height="40" as="geometry" />
        </mxCell>
        <mxCell id="oR6tJbkFe2Ptcuh7xE9g-23" value="支付渠道" style="ellipse;whiteSpace=wrap;html=1;fillColor=#dae8fc;strokeColor=#6c8ebf;" parent="1" vertex="1">
          <mxGeometry x="280" y="892" width="100" height="60" as="geometry" />
        </mxCell>
        <mxCell id="oR6tJbkFe2Ptcuh7xE9g-24" value="商品" style="ellipse;whiteSpace=wrap;html=1;fillColor=#d5e8d4;strokeColor=#82b366;" parent="1" vertex="1">
          <mxGeometry x="280" y="972" width="100" height="60" as="geometry" />
        </mxCell>
        <mxCell id="oR6tJbkFe2Ptcuh7xE9g-25" value="改查" style="ellipse;whiteSpace=wrap;html=1;fillColor=#fff2cc;strokeColor=#d6b656;" parent="1" vertex="1">
          <mxGeometry x="440" y="902" width="90" height="40" as="geometry" />
        </mxCell>
        <mxCell id="oR6tJbkFe2Ptcuh7xE9g-26" value="增删改查" style="ellipse;whiteSpace=wrap;html=1;fillColor=#e1d5e7;strokeColor=#9673a6;" parent="1" vertex="1">
          <mxGeometry x="440" y="962" width="90" height="40" as="geometry" />
        </mxCell>
        <mxCell id="oR6tJbkFe2Ptcuh7xE9g-27" value="审核" style="ellipse;whiteSpace=wrap;html=1;fillColor=#fff2cc;strokeColor=#d6b656;" parent="1" vertex="1">
          <mxGeometry x="440" y="1022" width="90" height="40" as="geometry" />
        </mxCell>
        <mxCell id="oR6tJbkFe2Ptcuh7xE9g-28" value="" style="endArrow=classic;html=1;entryX=0;entryY=0.5;entryDx=0;entryDy=0;exitX=0.93;exitY=0.5;exitDx=0;exitDy=0;exitPerimeter=0;" parent="1" source="oR6tJbkFe2Ptcuh7xE9g-8" target="oR6tJbkFe2Ptcuh7xE9g-13" edge="1">
          <mxGeometry width="50" height="50" relative="1" as="geometry">
            <mxPoint x="190" y="790" as="sourcePoint" />
            <mxPoint x="440" y="712" as="targetPoint" />
          </mxGeometry>
        </mxCell>
        <mxCell id="oR6tJbkFe2Ptcuh7xE9g-29" value="" style="endArrow=classic;html=1;entryX=0;entryY=0.5;entryDx=0;entryDy=0;exitX=0.93;exitY=0.5;exitDx=0;exitDy=0;exitPerimeter=0;" parent="1" source="oR6tJbkFe2Ptcuh7xE9g-8" target="oR6tJbkFe2Ptcuh7xE9g-14" edge="1">
          <mxGeometry width="50" height="50" relative="1" as="geometry">
            <mxPoint x="210" y="853" as="sourcePoint" />
            <mxPoint x="314.64413375855474" y="717.8563109698948" as="targetPoint" />
          </mxGeometry>
        </mxCell>
        <mxCell id="oR6tJbkFe2Ptcuh7xE9g-30" value="" style="endArrow=classic;html=1;entryX=0;entryY=0.5;entryDx=0;entryDy=0;exitX=0.93;exitY=0.5;exitDx=0;exitDy=0;exitPerimeter=0;" parent="1" source="oR6tJbkFe2Ptcuh7xE9g-8" target="oR6tJbkFe2Ptcuh7xE9g-23" edge="1">
          <mxGeometry width="50" height="50" relative="1" as="geometry">
            <mxPoint x="200" y="870" as="sourcePoint" />
            <mxPoint x="324.64413375855474" y="727.8563109698948" as="targetPoint" />
          </mxGeometry>
        </mxCell>
        <mxCell id="oR6tJbkFe2Ptcuh7xE9g-31" value="" style="endArrow=classic;html=1;entryX=0;entryY=0.5;entryDx=0;entryDy=0;exitX=0.93;exitY=0.5;exitDx=0;exitDy=0;exitPerimeter=0;" parent="1" source="oR6tJbkFe2Ptcuh7xE9g-8" target="oR6tJbkFe2Ptcuh7xE9g-24" edge="1">
          <mxGeometry width="50" height="50" relative="1" as="geometry">
            <mxPoint x="180" y="864" as="sourcePoint" />
            <mxPoint x="334.64413375855474" y="737.8563109698948" as="targetPoint" />
          </mxGeometry>
        </mxCell>
        <mxCell id="oR6tJbkFe2Ptcuh7xE9g-33" value="" style="endArrow=classic;html=1;entryX=0;entryY=0.5;entryDx=0;entryDy=0;entryPerimeter=0;exitX=0.93;exitY=0.5;exitDx=0;exitDy=0;exitPerimeter=0;" parent="1" source="oR6tJbkFe2Ptcuh7xE9g-8" target="oR6tJbkFe2Ptcuh7xE9g-9" edge="1">
          <mxGeometry width="50" height="50" relative="1" as="geometry">
            <mxPoint x="200" y="837" as="sourcePoint" />
            <mxPoint x="290" y="852" as="targetPoint" />
          </mxGeometry>
        </mxCell>
        <mxCell id="oR6tJbkFe2Ptcuh7xE9g-34" value="" style="edgeStyle=orthogonalEdgeStyle;rounded=0;orthogonalLoop=1;jettySize=auto;html=1;exitX=1;exitY=0.5;exitDx=0;exitDy=0;entryX=0;entryY=0.5;entryDx=0;entryDy=0;" parent="1" source="oR6tJbkFe2Ptcuh7xE9g-15" target="oR6tJbkFe2Ptcuh7xE9g-18" edge="1">
          <mxGeometry relative="1" as="geometry">
            <mxPoint x="390" y="687" as="sourcePoint" />
            <mxPoint x="450" y="687" as="targetPoint" />
          </mxGeometry>
        </mxCell>
        <mxCell id="oR6tJbkFe2Ptcuh7xE9g-35" value="" style="edgeStyle=orthogonalEdgeStyle;rounded=0;orthogonalLoop=1;jettySize=auto;html=1;exitX=1;exitY=0.5;exitDx=0;exitDy=0;" parent="1" source="oR6tJbkFe2Ptcuh7xE9g-42" edge="1">
          <mxGeometry relative="1" as="geometry">
            <mxPoint x="400" y="782" as="sourcePoint" />
            <mxPoint x="440" y="585" as="targetPoint" />
          </mxGeometry>
        </mxCell>
        <mxCell id="oR6tJbkFe2Ptcuh7xE9g-37" value="" style="edgeStyle=orthogonalEdgeStyle;rounded=0;orthogonalLoop=1;jettySize=auto;html=1;exitX=1;exitY=0.5;exitDx=0;exitDy=0;" parent="1" source="oR6tJbkFe2Ptcuh7xE9g-23" edge="1">
          <mxGeometry relative="1" as="geometry">
            <mxPoint x="420" y="802" as="sourcePoint" />
            <mxPoint x="440" y="922" as="targetPoint" />
          </mxGeometry>
        </mxCell>
        <mxCell id="oR6tJbkFe2Ptcuh7xE9g-38" value="" style="edgeStyle=orthogonalEdgeStyle;rounded=0;orthogonalLoop=1;jettySize=auto;html=1;exitX=1;exitY=0.5;exitDx=0;exitDy=0;entryX=0;entryY=0.5;entryDx=0;entryDy=0;" parent="1" source="oR6tJbkFe2Ptcuh7xE9g-14" target="oR6tJbkFe2Ptcuh7xE9g-22" edge="1">
          <mxGeometry relative="1" as="geometry">
            <mxPoint x="430" y="812" as="sourcePoint" />
            <mxPoint x="490" y="812" as="targetPoint" />
          </mxGeometry>
        </mxCell>
        <mxCell id="oR6tJbkFe2Ptcuh7xE9g-39" value="管理员" style="text;html=1;strokeColor=none;fillColor=none;align=center;verticalAlign=middle;whiteSpace=wrap;rounded=0;" parent="1" vertex="1">
          <mxGeometry x="119.13" y="872" width="76.25" height="20" as="geometry" />
        </mxCell>
        <mxCell id="oR6tJbkFe2Ptcuh7xE9g-41" value="" style="edgeStyle=orthogonalEdgeStyle;rounded=0;orthogonalLoop=1;jettySize=auto;html=1;exitX=1;exitY=0.5;exitDx=0;exitDy=0;" parent="1" source="oR6tJbkFe2Ptcuh7xE9g-11" edge="1">
          <mxGeometry relative="1" as="geometry">
            <mxPoint x="390" y="497" as="sourcePoint" />
            <mxPoint x="440" y="407" as="targetPoint" />
          </mxGeometry>
        </mxCell>
        <mxCell id="oR6tJbkFe2Ptcuh7xE9g-40" style="edgeStyle=orthogonalEdgeStyle;rounded=0;orthogonalLoop=1;jettySize=auto;html=1;exitX=0.5;exitY=1;exitDx=0;exitDy=0;" parent="1" source="oR6tJbkFe2Ptcuh7xE9g-39" target="oR6tJbkFe2Ptcuh7xE9g-39" edge="1">
          <mxGeometry relative="1" as="geometry" />
        </mxCell>
        <mxCell id="oR6tJbkFe2Ptcuh7xE9g-42" value="商品" style="ellipse;whiteSpace=wrap;html=1;fillColor=#dae8fc;strokeColor=#6c8ebf;" parent="1" vertex="1">
          <mxGeometry x="280" y="555" width="100" height="60" as="geometry" />
        </mxCell>
        <mxCell id="oR6tJbkFe2Ptcuh7xE9g-43" value="" style="endArrow=classic;html=1;exitX=0.87;exitY=0.65;exitDx=0;exitDy=0;exitPerimeter=0;entryX=0;entryY=0.5;entryDx=0;entryDy=0;" parent="1" source="oR6tJbkFe2Ptcuh7xE9g-2" target="oR6tJbkFe2Ptcuh7xE9g-4" edge="1">
          <mxGeometry width="50" height="50" relative="1" as="geometry">
            <mxPoint x="177.50000000000003" y="467" as="sourcePoint" />
            <mxPoint x="280.04" y="312" as="targetPoint" />
          </mxGeometry>
        </mxCell>
        <mxCell id="oR6tJbkFe2Ptcuh7xE9g-44" value="" style="endArrow=classic;html=1;exitX=0.87;exitY=0.65;exitDx=0;exitDy=0;exitPerimeter=0;entryX=0;entryY=0.5;entryDx=0;entryDy=0;" parent="1" source="oR6tJbkFe2Ptcuh7xE9g-2" target="oR6tJbkFe2Ptcuh7xE9g-42" edge="1">
          <mxGeometry width="50" height="50" relative="1" as="geometry">
            <mxPoint x="187.5" y="477" as="sourcePoint" />
            <mxPoint x="290.03999999999996" y="322" as="targetPoint" />
          </mxGeometry>
        </mxCell>
        <mxCell id="oR6tJbkFe2Ptcuh7xE9g-45" value="" style="endArrow=classic;html=1;exitX=0.87;exitY=0.65;exitDx=0;exitDy=0;exitPerimeter=0;entryX=0;entryY=0.383;entryDx=0;entryDy=0;entryPerimeter=0;" parent="1" source="oR6tJbkFe2Ptcuh7xE9g-2" target="oR6tJbkFe2Ptcuh7xE9g-15" edge="1">
          <mxGeometry width="50" height="50" relative="1" as="geometry">
            <mxPoint x="197.5" y="487" as="sourcePoint" />
            <mxPoint x="300.03999999999996" y="332" as="targetPoint" />
          </mxGeometry>
        </mxCell>
        <mxCell id="oR6tJbkFe2Ptcuh7xE9g-46" value="" style="endArrow=classic;html=1;exitX=0.87;exitY=0.65;exitDx=0;exitDy=0;exitPerimeter=0;entryX=0;entryY=0.5;entryDx=0;entryDy=0;" parent="1" source="oR6tJbkFe2Ptcuh7xE9g-2" target="oR6tJbkFe2Ptcuh7xE9g-11" edge="1">
          <mxGeometry width="50" height="50" relative="1" as="geometry">
            <mxPoint x="207.5" y="497" as="sourcePoint" />
            <mxPoint x="310.03999999999996" y="342" as="targetPoint" />
          </mxGeometry>
        </mxCell>
        <mxCell id="oR6tJbkFe2Ptcuh7xE9g-48" value="" style="endArrow=classic;html=1;exitX=1;exitY=0.5;exitDx=0;exitDy=0;entryX=0;entryY=0.5;entryDx=0;entryDy=0;" parent="1" source="oR6tJbkFe2Ptcuh7xE9g-4" target="oR6tJbkFe2Ptcuh7xE9g-6" edge="1">
          <mxGeometry width="50" height="50" relative="1" as="geometry">
            <mxPoint x="390" y="500" as="sourcePoint" />
            <mxPoint x="440" y="450" as="targetPoint" />
          </mxGeometry>
        </mxCell>
        <mxCell id="oR6tJbkFe2Ptcuh7xE9g-49" value="" style="endArrow=classic;html=1;entryX=0;entryY=0.5;entryDx=0;entryDy=0;" parent="1" target="oR6tJbkFe2Ptcuh7xE9g-7" edge="1">
          <mxGeometry width="50" height="50" relative="1" as="geometry">
            <mxPoint x="380" y="327" as="sourcePoint" />
            <mxPoint x="450" y="267" as="targetPoint" />
          </mxGeometry>
        </mxCell>
        <mxCell id="oR6tJbkFe2Ptcuh7xE9g-50" value="" style="endArrow=classic;html=1;entryX=0;entryY=0.5;entryDx=0;entryDy=0;exitX=1;exitY=0.5;exitDx=0;exitDy=0;" parent="1" source="oR6tJbkFe2Ptcuh7xE9g-24" target="oR6tJbkFe2Ptcuh7xE9g-26" edge="1">
          <mxGeometry width="50" height="50" relative="1" as="geometry">
            <mxPoint x="390" y="336.9999999999998" as="sourcePoint" />
            <mxPoint x="449.99999999999955" y="360" as="targetPoint" />
          </mxGeometry>
        </mxCell>
        <mxCell id="oR6tJbkFe2Ptcuh7xE9g-51" value="" style="endArrow=classic;html=1;entryX=0;entryY=0.5;entryDx=0;entryDy=0;exitX=1;exitY=0.5;exitDx=0;exitDy=0;" parent="1" source="oR6tJbkFe2Ptcuh7xE9g-24" target="oR6tJbkFe2Ptcuh7xE9g-27" edge="1">
          <mxGeometry width="50" height="50" relative="1" as="geometry">
            <mxPoint x="390" y="1012" as="sourcePoint" />
            <mxPoint x="449.99999999999955" y="992" as="targetPoint" />
          </mxGeometry>
        </mxCell>
        <mxCell id="oR6tJbkFe2Ptcuh7xE9g-52" value="" style="endArrow=classic;html=1;entryX=0;entryY=0.5;entryDx=0;entryDy=0;exitX=1;exitY=0.5;exitDx=0;exitDy=0;" parent="1" source="oR6tJbkFe2Ptcuh7xE9g-13" target="oR6tJbkFe2Ptcuh7xE9g-17" edge="1">
          <mxGeometry width="50" height="50" relative="1" as="geometry">
            <mxPoint x="390" y="1012" as="sourcePoint" />
            <mxPoint x="449.99999999999955" y="992" as="targetPoint" />
          </mxGeometry>
        </mxCell>
        <mxCell id="oR6tJbkFe2Ptcuh7xE9g-53" value="" style="endArrow=classic;html=1;entryX=0;entryY=0.5;entryDx=0;entryDy=0;" parent="1" target="oR6tJbkFe2Ptcuh7xE9g-20" edge="1">
          <mxGeometry width="50" height="50" relative="1" as="geometry">
            <mxPoint x="380" y="680" as="sourcePoint" />
            <mxPoint x="449.99999999999955" y="651.9999999999998" as="targetPoint" />
          </mxGeometry>
        </mxCell>
      </root>
    </mxGraphModel>
  </diagram>
</mxfile>
